<svg xmlns="http://www.w3.org/2000/svg" version="1.1" preserveAspectRatio="xMidYMid" viewBox="0 0 306 306.34201">
<g transform="translate(25,25)">
<path fill="#019833" d="m128.286 1.952-126.341 125.933 126.341 126.515 125.761-126.515-125.761-125.933"/>
<path fill="#66fe98" d="m128.264 13.516v-10.631l-125.49 125.023h10.753l114.737-114.392"/>
<path fill="#45fe02" d="m128.264 13.516v-10.631l125.88 125.023h-11.636l-114.244-114.392"/>
<path fill="#017d17" d="m128.264 242.836v11.769l-125.49-126.697h10.753l114.737 114.928"/>
<path fill="#005d04" d="m128.264 242.836v11.769l125.88-126.697h-11.636l-114.244 114.928"/>
<path d="m65.226 230.591h-24.326l-9.5-9.258v-176.783h-7.54l-6.455-6.464v-19.761l6.687-7.253h85.075l7.649 7.658v18.756l-6.356 7.747h-6.428v59.758l60.487-59.758h-3.377l-7.035-7.587v-19.888l6.912-6.345h85.872l6.796 6.805v18.81l-188.461 193.563"/>
<path d="m128.264 256.342-128.264-128.434 128.264-127.908 127.736 127.908-127.736 128.434zm-124.335-128.434 124.335 124.502 123.805-124.502-123.805-123.973-124.335 123.973z"/>
<path fill="#fefefe" d="m108.075 22.742 3.779-2.441-3.861-4.008h-81.837l-4.158 4.164v15.75l4.61 4.616 2.199-4.616-2.892-2.897v-11.103l2.169-1.931 77.264 0.095 2.727 2.371"/>
<path fill="#fefefe" d="m41.458 35.833v184.334l2.592 2.468-2.077 3.925-5.451-5.369v-180.579l4.936-4.779"/>
<path fill="#808080" d="m28.236 35.833-1.628 4.99h9.886l5.719-4.99h-13.977"/>
<path fill="#fefefe" d="m166.531 35.897-3.457-2.442v-9.896l3.616-3.621h75.449l2.893 3.862 4.117-3.249-4.238-3.872h-81.114l-4.038 4.043v15.871l4.252 3.848m-65.615 76.31-7.879 19.144 88.948-89.309-0.435-10.804-80.634 80.969"/>
<g fill="#808080">
<path d="m107.897 22.671 3.957-2.37v15.532l-4.517 4.523h-8.778l-0.163 76.395-7.849 19.1v-100.018h14.659l2.727-2.219-0.036-10.943"/>
<path d="m244.764 22.722 4.385-2.171v14.183l-186.741 191.826h-20.435l1.994-3.77 15.695 0.001 185.129-191.412-0.027-8.657"/>
<path d="m179.03 35.782-4.548 4.569-10.471 0.09 2.557-4.59c0.085 0 12.462-0.069 12.462-0.069"/>
</g>
<path fill="#ccc" d="m165.973 19.79-2.89 2.893v10.624l2.531 2.534h13.372v10.265l-88.46 89.783v-99.921h14.701l3.016-3.02v-10.751l-2.784-2.154h-77.366l-2.531 2.535v10.982l2.573 2.577h13.457v184.002l2.531 2.534h15.292l185.379-191.542v-8.448l-2.89-2.893h-75.931"/>
<path fill="#808080" d="m59.519 222.918h-15.497l-2.674-2.678v-183.859h-13.314l-2.716-2.72v-11.185l2.674-2.677h77.551l2.945 2.278v10.972l-3.159 3.163h-14.559v99.081l87.972-89.288v-9.919h-13.229l-2.674-2.678v-10.826l3.032-3.037h76.134l3.033 3.037v8.648l-0.068 0.071-185.451 191.617zm-15.294-0.489h15.087l185.238-191.396v-8.249l-2.747-2.75h-75.729l-2.747 2.75v10.422l2.388 2.391h13.516v10.609l-0.07 0.071-88.879 90.208v-100.761h14.844l2.873-2.878v-10.529l-2.623-2.03h-77.182l-2.388 2.392v10.78l2.431 2.434h13.599v184.144l2.389 2.392z"/>
<path fill="#ccc" d="m134.566 143.819c-0.141 0.029-0.271 0.095-0.38 0.19l-3.585 3.083c-0.107 0.098-0.187 0.221-0.232 0.359l-3.586 10.054c-0.108 0.301-0.034 0.637 0.19 0.866l2.742 2.745c0.159 0.153 0.371 0.236 0.591 0.233h11.073c0.22 0.003 0.432-0.08 0.59-0.233l2.89-2.914c0.1-0.1 0.172-0.224 0.211-0.359l3.08-10.582c0.085-0.292 0.004-0.608-0.211-0.823l-2.384-2.387c-0.158-0.153-0.371-0.236-0.59-0.232h-10.23c-0.056-0.006-0.113-0.006-0.169 0zm-20.29 28.343c-0.311 0.067-0.556 0.305-0.633 0.613l-1.371 5.449c-0.111 0.446 0.16 0.899 0.606 1.01 0.064 0.016 0.129 0.024 0.195 0.025h6.518l-16.157 46.19c-0.146 0.437 0.089 0.909 0.525 1.055 0.082 0.028 0.168 0.043 0.256 0.044h23.517c0.363 0.005 0.687-0.226 0.802-0.571l1.54-4.963c0.134-0.44-0.113-0.906-0.553-1.041-0.08-0.024-0.164-0.037-0.249-0.036h-5.315l15.988-46.676c0.146-0.437-0.089-0.909-0.525-1.055-0.082-0.028-0.169-0.043-0.256-0.044h-24.72c-0.056-0.005-0.112-0.005-0.168 0zm74.835 0.169c-0.181 0.038-0.345 0.134-0.465 0.275l-4.893 5.533h-7.783l-5.189-5.385c-0.155-0.161-0.367-0.252-0.59-0.254h-18.582c-0.35 0.001-0.662 0.22-0.781 0.549l-1.708 5.112c-0.146 0.436 0.088 0.908 0.524 1.055 0.083 0.027 0.169 0.042 0.256 0.043h4.978l-15.482 45.683c-0.146 0.437 0.089 0.909 0.525 1.056 0.082 0.027 0.169 0.042 0.256 0.043h19.784c0.35-0.001 0.661-0.22 0.781-0.549l1.518-4.457c0.146-0.436-0.088-0.909-0.524-1.055-0.083-0.028-0.169-0.042-0.256-0.043h-3.459l9.871-31.111h17.865l-11.263 36.138c-0.135 0.44 0.112 0.906 0.552 1.04 0.081 0.025 0.165 0.037 0.249 0.037h19.088c0.332-0.003 0.63-0.202 0.76-0.507l1.708-4.098c0.17-0.427-0.039-0.912-0.466-1.081-0.094-0.037-0.193-0.057-0.293-0.059h-3.459l10.04-31.639h17l-11.432 36.307c-0.134 0.44 0.113 0.906 0.552 1.04 0.081 0.025 0.165 0.037 0.25 0.037h20.965c0.344 0.002 0.655-0.208 0.781-0.528l1.708-4.457c0.158-0.432-0.064-0.91-0.496-1.068-0.091-0.034-0.187-0.051-0.284-0.051h-4.156l12.635-41.079c0.084-0.26 0.037-0.543-0.127-0.761l-3.923-5.28c-0.162-0.206-0.413-0.324-0.675-0.317h-14.996c-0.231-0.004-0.452 0.088-0.612 0.254l-4.725 5.195h-8.268l-4.893-5.364c-0.16-0.166-0.382-0.258-0.612-0.254h-12.086c-0.056-0.005-0.112-0.005-0.168 0z"/>
<g>
<path d="m128.359 162.524c0.523 0.504 1.207 0.78 1.901 0.78 0.015 0 0.03 0 0.046-0.001h11.039c0.742 0.023 1.444-0.263 2.013-0.81l2.883-2.909c0.334-0.334 0.579-0.751 0.706-1.195l3.079-10.58c0.285-0.979 0.015-2.035-0.705-2.752l-2.409-2.413c-0.535-0.516-1.238-0.8-1.947-0.78h-10.16c-0.146-0.008-0.292-0.005-0.436 0.01l-0.205 0.032c-0.47 0.099-0.909 0.318-1.252 0.62l-3.586 3.084-0.041 0.037c-0.349 0.318-0.612 0.72-0.764 1.167l-3.578 10.031c-0.359 1.001-0.109 2.137 0.647 2.907l2.769 2.772zm16.154-16.751 1.575 1.577-2.816 9.676-2.346 2.368-10.168 0.001-1.897-1.9 3.257-9.13 3.014-2.592h9.381z"/>
<path d="m241.638 176.931-3.923-5.28-0.035-0.045c-0.534-0.678-1.36-1.071-2.225-1.06h-14.948c-0.777-0.018-1.514 0.296-2.049 0.848l-4.184 4.601h-6.541l-4.312-4.727-0.04-0.043c-0.534-0.552-1.273-0.847-2.016-0.848h-12.016c-0.145-0.008-0.292-0.005-0.436 0.01l-0.202 0.031c-0.601 0.125-1.152 0.452-1.529 0.893l-4.31 4.874h-6.071l-4.615-4.79c-0.515-0.533-1.237-0.843-1.995-0.849h-18.588c-1.165 0.003-2.214 0.741-2.612 1.837l-1.724 5.155c-0.489 1.457 0.298 3.041 1.756 3.531 0.276 0.092 0.564 0.141 0.877 0.144h2.252l-14.61 43.11c-0.486 1.455 0.301 3.038 1.757 3.528 0.277 0.092 0.565 0.141 0.878 0.144h19.79c1.166-0.003 2.216-0.742 2.625-1.873l1.522-4.466c0.487-1.456-0.3-3.039-1.757-3.529-0.277-0.093-0.565-0.142-0.877-0.145h-0.789l8.631-27.201h13.778l-10.476 33.611c-0.449 1.47 0.381 3.031 1.847 3.48 0.271 0.083 0.561 0.117 0.824 0.123h19.105c1.11-0.009 2.108-0.675 2.547-1.709l1.722-4.13c0.565-1.429-0.136-3.052-1.558-3.616-0.317-0.127-0.65-0.193-1.019-0.199h-0.788l8.799-27.729h12.905l-10.637 33.782c-0.447 1.469 0.383 3.03 1.848 3.478 0.265 0.082 0.541 0.123 0.809 0.123h0.015 20.952c1.158-0.007 2.194-0.702 2.619-1.783l1.719-4.485c0.527-1.443-0.217-3.047-1.66-3.575-0.303-0.111-0.622-0.168-0.956-0.17h-1.51l11.847-38.518c0.282-0.864 0.124-1.815-0.416-2.533zm-16.723 44.96h5.169l-0.842 2.195h-18.676l11.772-37.383h-21.096l-11.28 35.548h4.432l-0.765 1.835h-16.815l11.599-37.214h-21.952l-11.111 35.019h4.554l-0.748 2.195h-17.406l15.854-46.782h-6.137l0.952-2.849h17.287l5.433 5.639h9.495l5.135-5.808 11.114-0.001 5.124 5.619h9.996l4.955-5.449h13.97l3.236 4.356-13.249 43.08z"/>
<path d="m130.096 218.105c-0.27-0.083-0.54-0.116-0.824-0.123h-2.58l15.106-44.099c0.489-1.458-0.299-3.041-1.757-3.531-0.275-0.092-0.563-0.141-0.877-0.144h-24.65c-0.146-0.008-0.292-0.005-0.437 0.01l-0.213 0.034c-1.046 0.225-1.858 1.01-2.117 2.046l-1.372 5.454c-0.371 1.49 0.539 3.005 2.034 3.38 0.212 0.052 0.431 0.08 0.664 0.081h3.763l-15.255 43.615c-0.489 1.458 0.3 3.041 1.756 3.53 0.277 0.092 0.565 0.141 0.878 0.144h23.489 0.041c1.204 0 2.263-0.763 2.656-1.946l1.542-4.971c0.449-1.469-0.381-3.031-1.847-3.48zm-24.292 6.488 16.541-47.289h-7.826l0.802-3.187h22.264l-16.364 47.774h6.534l-0.838 2.702h-21.113z"/>
</g>
</g>
</svg>
